<svg id="Layer_1" data-name="Layer 1" xmlns="http://www.w3.org/2000/svg" viewBox="0 0 500 300"><defs><style>.cls-1{fill:#fbf9f7;}.cls-2{opacity:0.8;}.cls-3{fill:#010101;}.cls-4{fill:#010202;}.cls-5{fill:#101010;}.cls-6{fill:#0c0d0d;}.cls-7{fill:#0d0e0e;}.cls-8{fill:#1c1c1c;}.cls-9{fill:#0b0c0c;}.cls-10{fill:#141414;}.cls-11{fill:#0f0f0f;}.cls-12{fill:#080809;}.cls-13{fill:#1a1a1a;}.cls-14{fill:#111;}.cls-15{fill:#131313;}.cls-16{fill:#161617;}.cls-17{fill:#121212;}.cls-18{fill:#171717;}.cls-19{fill:#020303;}.cls-20{fill:#dfdfdf;}.cls-21{fill:#1f1f1f;}.cls-22{fill:#fcfcfc;}</style></defs><rect class="cls-1" x="-6.15" y="-4.96" width="532.4" height="333.08"/><g class="cls-2"><path class="cls-3" d="M299.43,175.38v-10.7H289.8v-6.36h9.63V147.89h7.23v10.43h9.69v6.36h-9.69v10.7Z"/></g><g class="cls-2"><path class="cls-3" d="M201.86,178c2.58-4.62,4.89-8.49,6.92-12.51a6.4,6.4,0,0,1,6.1-4c11-.5,11-.62,11,10.59,0,9.45-.36,18.89.14,28.3.33,6.55-3.68,5.52-7.6,5.61-4.17.1-8,.41-7.37-5.87.44-4.25.08-8.59.08-13.66-3.81,3-3.31,8.93-9.16,9.06s-5.7-5.59-9.26-9c0,5.59-.08,10.33,0,15.06.07,3-1.22,4.16-4.26,4.43-10.51.94-10.86.74-10.86-9.58,0-9.87.15-19.74-.06-29.6-.08-4,1.2-5.11,5.21-5.44,6.92-.57,11.84.92,14.2,8.13C197.84,172.35,199.89,174.72,201.86,178Z"/><path class="cls-3" d="M76.78,184.35V166c0-2.32-.08-4.46,3.25-4.33,9.37.37,18.82-.84,28.09.74,6,1,10.32,3.85,12.42,10.1,2,5.92.75,11-3.51,14.82-3.49,3.14-.71,5,.42,7.13,6.19,11.81,6.23,11.61-6.81,11.71-4.15,0-6.61-1.24-7.92-5.11-.55-1.63-1.48-3.13-2.13-4.73-1-2.41-1.5-5.24-5.12-4.59-4.29.76-1.7,4.16-2.3,6.31-.72,2.59,1.51,6.87-1.69,7.64-4.3,1-9.11.38-13.63-.13-1.58-.19-1.09-2.61-1.11-4C76.77,195.73,76.78,190.05,76.78,184.35Z"/><path class="cls-4" d="M179.62,128.36c0-5.93.08-11.84,0-17.77,0-3.06,1.1-4.25,4.25-4.21,11.39.14,22.74.2,34.17,0,5.54-.11,4.2,3.64,4.47,6.69.29,3.48,0,5.93-4.69,5.67-6.11-.35-12.25-.08-18.39-.08-1.58,0-3.26,0-3.09,2.26.13,1.87,1.73,1.59,3,1.61,5,0,10.09.14,15.12,0,5.41-.18,4.2,3.61,4.45,6.69.28,3.38-.33,5.35-4.47,5.12-5-.32-10.06,0-15.1-.08-1.63,0-3.24.13-3,2.35.22,1.93,1.9,1.42,3.07,1.43,6.36,0,12.71.26,19,0,5.69-.26,4.16,3.66,4.34,6.69s.54,6-4.38,5.87c-11.38-.28-22.74-.21-34.16,0-3.94,0-4.83-1.6-4.68-5.13C179.78,139.76,179.62,134.06,179.62,128.36Z"/><path class="cls-4" d="M67.67,178.27c2.32,7.09,2.83,14.26-2.38,20.16-6.33,7.17-15.22,8.67-24,7.21C24,202.75,18.26,193.5,22,176.09a15,15,0,0,1,2.21-5.35c6.08-8.61,15.22-9.59,24.53-8.83,9,.75,17.2,3.51,20.07,13.68-5.35,3.17-11.08.92-16.59,1.55a38.06,38.06,0,0,1-4.51-.69c-5.71-.42-7.14.81-7.36,6.37-.25,6.52,1.34,8.26,7.47,8-2.68-8.56-2.22-10.82,2.79-13.66C56.34,177.62,62.13,175.92,67.67,178.27Z"/><path class="cls-4" d="M151.32,161.62c5.48,0,11,.27,16.42,0s5.25,3,5.19,6.69c0,3.46.31,6.57-4.86,6.42-2.68,0-7.31-2.1-8.11,1.34a40.4,40.4,0,0,0,0,15.65c.43,2.39,4.33,1.17,6.53,1,4.81-.42,6.69,1.09,6.51,6.17-.15,4.54-.41,7.48-6.27,7.25-10.7-.4-21.49-.4-32.2,0-6.9.26-4.75-4.41-5.24-8-.61-4.37,1.19-6.1,5.43-5.35,6.54,1.22,9.23-1.34,8-7.93a14.78,14.78,0,0,1,0-4.6c.66-4.4-.68-6.12-5.53-5.9-8.49.39-8.34,0-7.92-8.68.14-3.2,1.33-4.23,4.29-4.15C139.48,161.73,145.41,161.62,151.32,161.62Z"/><path class="cls-3" d="M161.14,150.35c-2.85.17-6.49.61-8.17-4.76-1-3.31-14.8-2.12-16.8,1.13-1.8,2.87-12.47,5.35-15.11,3.37-1.6-1.15-1-2.85-.58-4.2,4.12-12.14,8.37-24.23,12.53-36.36a4.36,4.36,0,0,1,4.91-3.29c4.37.15,8.77.23,13.15,0,3.73-.22,5.26,1.34,6.37,4.87,3.29,10.59,7.09,21,10.7,31.53C170.75,150.37,170.73,150.38,161.14,150.35Z"/><path class="cls-3" d="M94.05,109.13c6.34,0,12.69.19,19,0s3.9,4.43,4.12,7.31,1.47,6.55-4.23,6.68c-10.46.14-10.46.46-10.46,11.23,0,4.81-.19,9.63,0,14.44.19,3.47-1.16,4.43-4.5,4.61-12.56.65-12.56.77-12.56-11.72,0-4-.45-8,.11-11.81.88-6.13-1.71-7.68-7.22-6.92-4.75.64-8,.32-7.87-6.5.15-6.26,2-7.83,7.79-7.32C83.52,109.49,88.79,109.13,94.05,109.13Z"/><path class="cls-5" d="M221.9,227.81c-2.68,4.87-1.73,7.77,3.52,8.65,1.2.2,3.81-.57,3.22,1.89-.51,2.16-2.68,1.52-4.39,1.07s-3-2-4.88-1c-.82,1.58.49,2.41,1.11,3.46s1.43,1.73.19,2.78c-1.5,1.24-2.3.2-3.12-.9l-8.15-11c-.74-1-1.9-2.19-.58-3.4,1.83-1.7,2.67.36,3.54,1.34a55.5,55.5,0,0,1,3.38,4.53C218.58,233.32,216.57,228.49,221.9,227.81Z"/><path class="cls-6" d="M216.47,77.36c-3.6,5.11-8,8.2-12.3,11.56a6.36,6.36,0,0,1-7.27.88c-1.07-.56-3.16-1.34-2.32-3.25,1.07-2.48,2.25-.22,3.44.16,3.25,1,4.83-.68,5.53-3.63.74-3.17,1.43-6.36,2.2-9.53.27-1.06-.27-3,2-2.29a2.24,2.24,0,0,1,1.74,2.63,1.7,1.7,0,0,1-.13.4c-.69,2.27-1.33,4.55-2,7.33C210.89,81.17,211.89,75.91,216.47,77.36Z"/><path class="cls-7" d="M176.91,257.29a6.61,6.61,0,0,1,0,1.54c-.68,2.39,3.64,5.94.22,6.69-3.78.81-2.89-4.33-4-6.83A67.15,67.15,0,0,1,170.3,250c-.29-1-.49-2.26.93-2.68s2.11.5,2.28,1.63c.65,4.27,2.77,3,5.44,1.92,1.63-.66,3.74-.76,4.82,1.84a28.44,28.44,0,0,1,2.85,9.11c0,.38-.85,1-1.41,1.19-1,.31-1.52-.28-1.73-1.33a39.17,39.17,0,0,0-1.43-5.54,3.22,3.22,0,0,0-3.6-2.25C176,254.25,177.29,256.22,176.91,257.29Z"/><path class="cls-7" d="M130.92,259.48c.08,4.87-1.75,7.61-6.39,7.65s-7-2.18-6.84-6.68,2.33-7.86,7-7.68C128.74,252.83,131.63,255.17,130.92,259.48Z"/><path class="cls-6" d="M92.62,79.94c-5.53-.12-7.11-4.21-7.12-8.43,0-3.85,2.74-6.29,7-6.18,5.11.14,6.89,3.75,7.12,7.85C99.85,77.5,97.24,80,92.62,79.94Z"/><path class="cls-5" d="M111,255.05c2-1.33,2.85-6.08,5.47-4s-1.65,3.89-2.81,5.75a75.11,75.11,0,0,1-6.69,8.1,5.48,5.48,0,0,1-7,1.64c-.92-.43-2.08-1-1.79-2.37.35-1.57,1.44-1,2.51-.69,4.1,1.14,4.83-1.57,5-4.63s.08-6.11,0-9.16c0-1.92.53-3,2.67-2.38,1.34,1.74.44,3.74.71,5.61C109.25,254.05,108.89,255.7,111,255.05Z"/><path class="cls-8" d="M82.24,234.53c.71,4.79-4.52,6.1-5.44,9.81a50.23,50.23,0,0,1-6.92-3.83c-2-1.55-2.95-3.86-1.15-6.32s3.84-1.93,5.77-.61c1.59,1.1,3.56,3.27,4.56.67.84-2.16-2-2.75-4-2.67-1.17,0-2.34-.27-2-1.75a1.75,1.75,0,0,1,2.06-1.38,1.62,1.62,0,0,1,.48.17C78.55,229.68,82.78,229.59,82.24,234.53Z"/><path class="cls-7" d="M176.48,73.12c1.34-3,3.91-5.25,4.3-8.82.35-2.85,3-3.9,5.43-3.38,3.26.65,6.35,2.2,10.14.48-3.88,2.42-3,7.34-6.26,9.54-2.34,1.17-5.83-.94-7.36,2.57a4.84,4.84,0,0,1-1.91,1.79,3.86,3.86,0,0,1-2.68,0A3.57,3.57,0,0,1,176.48,73.12Z"/><path class="cls-9" d="M141.32,61.57c-1.73-1.33-4.1-2.38-3.27-5a4.51,4.51,0,0,1,4.51-3.17c2.93-.11,5.67-.13,6.3,3.62-2.47,2.17-4.72-2.48-7.36,0-.12,2.77,2.68,2.21,4.08,2.84,2.29,1,5,1.79,4.52,4.67s-3.25,3.72-6.13,3.74c-3.11,0-5.62-.62-6.53-4,1-1.11,2.24-.28,3.39-.36C143.31,63.59,141.93,62.48,141.32,61.57Z"/><path class="cls-10" d="M112.81,71.08c-5.5,4.26-7.17,4.16-8.88-1-1-3.1-4.2-5.26-3.84-8.72.21-2.1-1-8.43,3.92-2.06,1.18,1.52,3.06-1,4,.92C104,65.08,105.84,69.91,112.81,71.08Z"/><path class="cls-11" d="M171.16,267c-5.35,2-8.53,2.1-8.75-3.53-.13-3.55-4.4-6.37-1.66-10.44.36-.54,0-1.87,1.13-1.8,2.28.15,2.78,3.28,5.35,3.37.83,0,0,1.11-.5,1.82C163.55,261,164.66,264.24,171.16,267Z"/><path class="cls-6" d="M124.19,58.6c-1.13.43-2.06,2.28-3.33,1.27s-.14-2.31.78-3.22a7.35,7.35,0,0,1,9-1.34c3.4,2,3.11,6.2,3.15,9.83,0,3.09-1.77,3.46-4.2,3a3,3,0,0,1-.91-1.34c-.22-1.9-1.62-2.59-3.2-3.13-.77-.47-1.34-1-1.11-2.05l-.17-.37C125.14,60.4,127,59.58,124.19,58.6Z"/><path class="cls-12" d="M180.86,74.36l1.34-1.1a1.88,1.88,0,0,1,2.64-.19l0,0c2.56,1.62,7.43,2.47,4.64,6.69-3,4.6-7.73,3.19-11.54.58-2.48-1.69-6.18-3.86-1.47-7.31l1.78,1.62a15.69,15.69,0,0,0,5.09,3.25C183.19,76,181,75.87,180.86,74.36Z"/><path class="cls-13" d="M170.17,69.71c-3.68,1.52-7.25,1.17-8.64-2.76s.71-8,2.23-11.65c.4-1,2.58-.28,2.53,1.47a26,26,0,0,1-.92,5c-1,4.32,0,6.49,4.87,4.71a2.25,2.25,0,0,1-.05,3.18Z"/><path class="cls-14" d="M195,80.34c-1.21-.45-2.11-1.23-1-3.16,2.55-4.49,4.95-9.09,7.42-13.64.5-.92.88-2,2.37-1.22,1.18.64,1.48,1.34.84,2.6-2.67,4.93-5.35,9.9-7.9,14.86C196.39,80.37,196.15,80.88,195,80.34Z"/><path class="cls-10" d="M199.33,243.08c1.89-2.27,3.43-5.43,7.2-3.9,4,1.63,4.95,5.87,7,9.11.18.29-.27,1.17-.64,1.59a1.35,1.35,0,0,1-1.88.25,1.55,1.55,0,0,1-.3-.33c-1-1.42-1.88-3-2.87-4.38s-1.63-3.6-3.7-3.07c-2.29.57-2.34,2.83-2.33,4.85C199,247,198.52,245.52,199.33,243.08Z"/><path class="cls-15" d="M72.77,77c1.22-3.08,3.6-3.72,6.34-2.56,3.87,1.64,5.15,5.69,7.39,8.82.13.19-.51,1.23-1,1.53-1.62,1-2.2-.58-3.1-1.42-2.35-2.18-2.68-7.88-8.12-4.7C73,78.76,72.28,78.37,72.77,77Z"/><path class="cls-10" d="M72.77,77l1.52,1.67c-1,3.75,1.75,6,3.49,8.63.63,1,1.13,2,.14,2.86-1.33,1.25-2.27.35-3.09-.79A34.63,34.63,0,0,0,71,84.15C67.13,80.46,69.08,78.55,72.77,77Z"/><path class="cls-9" d="M145.17,268.67c-2.85.32-6.18,2.74-8.33-.57s-.67-7.61-.79-11.45c0-1,.88-1.34,1.83-1.19a1.68,1.68,0,0,1,1.34,1.87c-.08,1.74-.38,3.46-.49,5.2-.22,4.24,1.78,5,5.25,3.25C145.29,266.4,146.15,267.19,145.17,268.67Z"/><path class="cls-16" d="M92.45,246.23c.78,2.08,1.57,4.29-.94,5.71s-4.6.52-6.6-1-3.63-3.23-2.38-6c.12-.29,1.2-.14,1.83-.18,1.34.18,2.3,2.28,3.92.68a4,4,0,0,1,2-1.33,2.14,2.14,0,0,1,2.21,2.07Z"/><path class="cls-1" d="M50.56,175.77c6.1.63,12.2,1.07,18.29-.21l-1.18,2.75H49.23A1.82,1.82,0,0,1,50.56,175.77Z"/><path class="cls-11" d="M170.17,69.71v-3.2a13.76,13.76,0,0,0,1.23-2.94c.44-2.42,0-6.48,3.18-5.76,2.41.55,1,4.75,0,6.81S176.28,72.31,170.17,69.71Z"/><path class="cls-5" d="M90.06,244.46l-1.34,1.42c-2.52.83-1.82-1.71-2.68-2.58-.18-2.68-.83-5.54,3.41-5.35a6.76,6.76,0,0,1,6.93,5.64c.35,1.51-1.43,1.06-2.42,1C92.67,244.18,91.41,242.84,90.06,244.46Z"/><path class="cls-5" d="M196.66,257.56c-.51,2-1.81,2.34-3,1.56a4.77,4.77,0,0,1-1.53-2.77c-.7-3.17-4.48-5.48-2.67-9.36.15-.32,1-1.22,1.55-.26C193,250.37,194.85,254.05,196.66,257.56Z"/><path class="cls-17" d="M199.33,243.08l2.49,4.12c1,2.53,5.56,5.35,2.43,7.27-2.76,1.72-3.71-3.42-5.17-5.64C196.31,244.63,196.48,244.51,199.33,243.08Z"/><path class="cls-18" d="M129.42,66.48l.14,1.71c-2.68,2.12-5.46,2-7.83-.48-1.82-1.87-.77-4,.27-5.8.23-.4,1.53-.19,2.34-.26L126,63C126.52,64.8,128.42,65.2,129.42,66.48Z"/><path class="cls-19" d="M145.17,268.67,144,265.78a42.87,42.87,0,0,1,1.14-5c.55-1.54-1.34-4.75,1.91-4.36,2.68.31,1.26,3.21,1.34,4.95a28.19,28.19,0,0,1-.55,7.1C147.44,270.3,146.17,270,145.17,268.67Z"/><path class="cls-1" d="M141.32,61.57A6.09,6.09,0,0,1,146.49,64c-3,4-6.14-.79-9.05.19C137.91,62,140.47,63.11,141.32,61.57Z"/><path class="cls-1" d="M124.19,58.6c1.22-1.74,2.68-2.11,4.14-.42.53.58,1.25,1.76,1,2.15-1.33,2.15-3.38.83-5.17,1Z"/><path class="cls-1" d="M184.86,73.1l-2.68.16c-.44-.91-1.44-2-1.23-2.67.64-2.14,1.82-.26,2.84-.13,2.07.25,4.16.3,6.24.45C188.92,73,186.17,71.35,184.86,73.1Z"/><path class="cls-1" d="M86,243.3l2.68,2.58c-.23,1,2.13,2.53,0,3-3,.71-3.87-1.72-4.39-4.12Z"/><path class="cls-20" d="M90.06,244.46c0-1.22-2-2.74-.54-3.37,2.86-1.2,3.44,1.64,4.44,3.49l-1.51,1.65Z"/><path class="cls-3" d="M111,255.05c-.66,1.06-1.5,3.56-2.36.46-.71-2.57-.24-5.49-.28-8.24C112,248.94,108.13,253.16,111,255.05Z"/><path class="cls-21" d="M188.34,244.54c-1.74.31-2.4-.37-2.41-1.63s.33-2.12,1.67-2.21a1.94,1.94,0,0,1,2.17,1.65c0,.05,0,.11,0,.16A1.81,1.81,0,0,1,188.34,244.54Z"/><path class="cls-1" d="M98.23,179.89C96.06,179.64,93,181,93,176.52s3-3.22,5.35-3.38c2.67-.2,5.62-.08,5.71,3.5C104.14,180.68,100.83,179.79,98.23,179.89Z"/><path class="cls-22" d="M50.56,175.77l-1.33,2.52c-3.16,7.18-2.32,10,3.89,11.33-3.28,5-7.64,4.51-12,2.67-2.39-1-4-12.42-1.94-15.23C42.24,173,46.42,173.27,50.56,175.77Z"/><path class="cls-1" d="M148.93,131c-8.9.8-8.9.8-4.34-11C147.39,123.4,147.87,127.28,148.93,131Z"/><path class="cls-1" d="M124.94,256c1.78.2,3.33,1.15,3.12,3.17-.24,2.34-1,4.88-4,5.07-2.42.14-2.54-1.87-2.54-3.64C121.52,258.37,121.73,256.22,124.94,256Z"/><path class="cls-1" d="M96.52,73.18a3.43,3.43,0,0,1-3,3.79h0c-3.14.43-4-2.38-4.6-4.55a3.18,3.18,0,0,1,3.16-4C94.82,68.29,95.51,71.07,96.52,73.18Z"/><path class="cls-1" d="M72.89,235.73a4.51,4.51,0,0,1,3.44,2.6c.54.89-.75,1.34-1.46,1.49a2.56,2.56,0,0,1-3.15-1.77,2.43,2.43,0,0,1-.08-.47,1.45,1.45,0,0,1,1-1.8A.8.8,0,0,1,72.89,235.73Z"/><path class="cls-1" d="M180.86,74.36a2.16,2.16,0,0,1,.61.19c1.68,1.34,4.7.81,5.17,3.36.21,1.13-1.53,2-2.95,1.8-2.89-.41-5.77-1-5.43-5Z"/><path class="cls-1" d="M186.74,63.59c1.49.15,2.4.89,2.28,2.45s-1,2.89-2.78,2.68a2.6,2.6,0,0,1-2.44-2.45C183.8,64.29,185.14,63.71,186.74,63.59Z"/><path class="cls-1" d="M129.42,66.48c-1.68.39-3.5,1.14-4.68-.87-.8-1.33.87-1.72,1.34-2.59C128.25,63.11,132.34,61.39,129.42,66.48Z"/><path class="cls-3" d="M253.1,161.72c6.34,0,12.69.19,19,0s3.91,4.43,4.12,7.31,1.47,6.55-4.23,6.68c-10.46.14-10.46.46-10.46,11.23,0,4.81-.18,9.63,0,14.44.19,3.47-1.16,4.43-4.49,4.61-12.56.65-12.56.77-12.56-11.72,0-4-.46-8,.1-11.81.89-6.13-1.71-7.68-7.22-6.92-4.75.64-8,.32-7.86-6.5.14-6.26,2-7.83,7.78-7.32C242.57,162.08,247.84,161.72,253.1,161.72Z"/></g><g class="cls-2"><path class="cls-3" d="M332.9,199.43l21.67-77.27h20.26V128H360.31V156.4h10.43v5.54H360.31v31.77h14.51v5.72h-19.6v-20.7H343.85l-5.6,20.7Zm12.37-26.23h10V134.49Z"/><path class="cls-3" d="M380.71,199.43V122.16H393a12.49,12.49,0,0,1,8,2.32,12.94,12.94,0,0,1,4.16,6.79,38.19,38.19,0,0,1,1.27,10.54,44.88,44.88,0,0,1-.67,8.1,18.68,18.68,0,0,1-2.27,6.49,7.63,7.63,0,0,1-4.55,3.53l8.3,39.5h-4.95l-8-38h-8.5v38Zm5.08-43.31h6.89A7.78,7.78,0,0,0,398,154.5a9,9,0,0,0,2.68-4.77,32.48,32.48,0,0,0,.8-7.92q0-7.16-1.74-10.7c-1.16-2.37-3.45-3.54-6.89-3.54h-7Z"/><path class="cls-3" d="M414,199.43V122.16H419V194h15.38v5.43Z"/><path class="cls-3" d="M438.57,199.43V122.16h5.09v77.27Z"/><path class="cls-3" d="M464.51,200.48a10.51,10.51,0,0,1-8-3,17.54,17.54,0,0,1-4.12-8.63,61.74,61.74,0,0,1-1.21-12.94V145.71a61.21,61.21,0,0,1,1.18-12.88,16.58,16.58,0,0,1,4.15-8.44,11.31,11.31,0,0,1,8.38-3,11.17,11.17,0,0,1,7.74,2.57,14.9,14.9,0,0,1,4.1,7.55,49.73,49.73,0,0,1,1.27,12v2.67h-4.81v-2.67a49.17,49.17,0,0,0-.7-9.15A10.68,10.68,0,0,0,470,129a8.07,8.07,0,0,0-10.7.48,12.59,12.59,0,0,0-2.39,6.4,65.09,65.09,0,0,0-.58,9.15v31.78a56.39,56.39,0,0,0,.71,9.63,11.94,11.94,0,0,0,2.61,6.1,6.85,6.85,0,0,0,5.35,2.1,6.43,6.43,0,0,0,5.19-2.14,13,13,0,0,0,2.57-6.15,53.89,53.89,0,0,0,.73-9.74V167.5h-8v-5.44H478.2v37.45h-3.28l-.6-8.77A16.23,16.23,0,0,1,471,197.9,8.16,8.16,0,0,1,464.51,200.48Z"/></g></svg>